<svg width="25" height="24" viewBox="0 0 25 24" fill="none" xmlns="http://www.w3.org/2000/svg">
<path d="M13.2498 17.2501C14.7332 17.2501 16.1833 16.8103 17.4166 15.9861C18.65 15.162 19.6113 13.9907 20.1789 12.6202C20.7466 11.2498 20.8951 9.7418 20.6057 8.28694C20.3163 6.83208 19.602 5.49571 18.5531 4.44682C17.5043 3.39792 16.1679 2.68362 14.713 2.39423C13.2582 2.10484 11.7502 2.25336 10.3797 2.82102C9.00928 3.38868 7.83794 4.34997 7.01383 5.58334C6.18972 6.81671 5.74985 8.26676 5.74985 9.75012C5.75208 11.7386 6.54298 13.6449 7.94901 15.051C9.35505 16.457 11.2614 17.2479 13.2498 17.2501ZM13.2498 3.75012C14.4365 3.75012 15.5966 4.10201 16.5833 4.7613C17.57 5.42059 18.339 6.35766 18.7931 7.45402C19.2473 8.55037 19.3661 9.75677 19.1346 10.9207C18.903 12.0845 18.3316 13.1536 17.4925 13.9928C16.6534 14.8319 15.5843 15.4033 14.4204 15.6348C13.2565 15.8663 12.0501 15.7475 10.9537 15.2934C9.85739 14.8393 8.92032 14.0702 8.26103 13.0835C7.60174 12.0968 7.24985 10.9368 7.24985 9.75012C7.25159 8.15935 7.88428 6.63424 9.00913 5.5094C10.134 4.38455 11.6591 3.75186 13.2498 3.75012ZM20.5408 16.2657C20.6091 16.3368 20.6628 16.4206 20.6987 16.5125C20.7346 16.6043 20.752 16.7023 20.75 16.8008C20.748 16.8994 20.7266 16.9966 20.687 17.0869C20.6474 17.1772 20.5904 17.2588 20.5192 17.327C18.7542 19.029 16.446 20.0547 13.9998 20.2239V21.7501H16.2498C16.4488 21.7501 16.6395 21.8291 16.7802 21.9698C16.9208 22.1104 16.9998 22.3012 16.9998 22.5001C16.9998 22.699 16.9208 22.8898 16.7802 23.0304C16.6395 23.1711 16.4488 23.2501 16.2498 23.2501H10.2498C10.0509 23.2501 9.86017 23.1711 9.71952 23.0304C9.57887 22.8898 9.49985 22.699 9.49985 22.5001C9.49985 22.3012 9.57887 22.1104 9.71952 21.9698C9.86017 21.8291 10.0509 21.7501 10.2498 21.7501H12.4998V20.2229C10.5107 20.0805 8.60319 19.3744 7.0006 18.1875C5.39802 17.0005 4.1666 15.3817 3.45042 13.5205C2.73425 11.6592 2.56294 9.6325 2.95653 7.67745C3.35013 5.72239 4.29236 3.91986 5.67297 2.48074C5.74074 2.40793 5.82232 2.34932 5.91296 2.30833C6.00359 2.26734 6.10148 2.24479 6.20091 2.242C6.30035 2.2392 6.39934 2.25621 6.49214 2.29204C6.58494 2.32787 6.66968 2.3818 6.74143 2.4507C6.81319 2.51959 6.87052 2.60207 6.91009 2.69333C6.94967 2.7846 6.97069 2.88282 6.97194 2.98229C6.97319 3.08175 6.95463 3.18047 6.91736 3.2727C6.8801 3.36493 6.82485 3.44882 6.75485 3.51949C5.11993 5.21775 4.21658 7.48967 4.23897 9.8469C4.26136 12.2041 5.20771 14.4585 6.8746 16.1254C8.54149 17.7923 10.7958 18.7386 13.1531 18.761C15.5103 18.7834 17.7822 17.88 19.4805 16.2451C19.6238 16.1073 19.8161 16.032 20.0149 16.0359C20.2137 16.0397 20.4029 16.1224 20.5408 16.2657Z" fill="white"/>
</svg>
