<svg width="25" height="24" viewBox="0 0 25 24" fill="none" xmlns="http://www.w3.org/2000/svg">
<path d="M19.3222 5.05219C17.5069 3.25462 15.0547 2.24739 12.5 2.25001H12.3997C9.83125 2.27643 7.37699 3.31532 5.57015 5.14094C3.76331 6.96656 2.74986 9.43143 2.75 12C2.75 16.0313 5.24187 19.4119 9.2525 20.8284C9.70485 20.9879 10.1889 21.0366 10.6639 20.9704C11.139 20.9043 11.5912 20.7252 11.9828 20.4481C12.3743 20.1711 12.6937 19.8042 12.9142 19.3782C13.1347 18.9523 13.2499 18.4797 13.25 18C13.25 17.6022 13.408 17.2207 13.6893 16.9393C13.9706 16.658 14.3522 16.5 14.75 16.5H19.0822C19.7627 16.5033 20.4239 16.2737 20.9559 15.8495C21.488 15.4252 21.8589 14.8317 22.0072 14.1675C22.1748 13.4294 22.2563 12.6744 22.25 11.9175C22.2404 10.6364 21.9767 9.36988 21.4742 8.19141C20.9716 7.01294 20.2401 5.94592 19.3222 5.05219ZM20.5409 13.8375C20.4664 14.1684 20.2813 14.464 20.016 14.6753C19.7508 14.8867 19.4214 15.0012 19.0822 15H14.75C13.9543 15 13.1913 15.3161 12.6287 15.8787C12.0661 16.4413 11.75 17.2044 11.75 18C11.7497 18.2396 11.6919 18.4756 11.5816 18.6883C11.4713 18.901 11.3117 19.0842 11.1161 19.2225C10.9205 19.3609 10.6946 19.4503 10.4573 19.4834C10.22 19.5166 9.9782 19.4923 9.75219 19.4128C6.35844 18.2156 4.25 15.375 4.25 12C4.24988 9.82667 5.10736 7.74108 6.63613 6.19633C8.1649 4.65158 10.2415 3.77248 12.4147 3.75001H12.4991C14.6724 3.75845 16.7553 4.62073 18.2986 6.15091C19.8419 7.68109 20.722 9.75654 20.7491 11.9297C20.7546 12.5714 20.6861 13.2116 20.5447 13.8375H20.5409ZM13.625 7.12501C13.625 7.34751 13.559 7.56502 13.4354 7.75002C13.3118 7.93503 13.1361 8.07922 12.9305 8.16437C12.725 8.24952 12.4988 8.2718 12.2805 8.22839C12.0623 8.18498 11.8618 8.07783 11.7045 7.9205C11.5472 7.76317 11.44 7.56271 11.3966 7.34448C11.3532 7.12625 11.3755 6.90005 11.4606 6.69449C11.5458 6.48892 11.69 6.31322 11.875 6.1896C12.06 6.06599 12.2775 6.00001 12.5 6.00001C12.7984 6.00001 13.0845 6.11853 13.2955 6.32951C13.5065 6.54049 13.625 6.82664 13.625 7.12501ZM9.5 9.37501C9.5 9.59751 9.43402 9.81502 9.3104 10C9.18679 10.185 9.01109 10.3292 8.80552 10.4144C8.59995 10.4995 8.37375 10.5218 8.15552 10.4784C7.93729 10.435 7.73684 10.3278 7.5795 10.1705C7.42217 10.0132 7.31502 9.81271 7.27162 9.59448C7.22821 9.37625 7.25049 9.15005 7.33564 8.94449C7.42078 8.73892 7.56498 8.56322 7.74998 8.4396C7.93499 8.31599 8.1525 8.25001 8.375 8.25001C8.67337 8.25001 8.95952 8.36853 9.17049 8.57951C9.38147 8.79049 9.5 9.07664 9.5 9.37501ZM9.5 14.625C9.5 14.8475 9.43402 15.065 9.3104 15.25C9.18679 15.435 9.01109 15.5792 8.80552 15.6644C8.59995 15.7495 8.37375 15.7718 8.15552 15.7284C7.93729 15.685 7.73684 15.5778 7.5795 15.4205C7.42217 15.2632 7.31502 15.0627 7.27162 14.8445C7.22821 14.6263 7.25049 14.4001 7.33564 14.1945C7.42078 13.9889 7.56498 13.8132 7.74998 13.6896C7.93499 13.566 8.1525 13.5 8.375 13.5C8.67337 13.5 8.95952 13.6185 9.17049 13.8295C9.38147 14.0405 9.5 14.3266 9.5 14.625ZM17.75 9.37501C17.75 9.59751 17.684 9.81502 17.5604 10C17.4368 10.185 17.2611 10.3292 17.0555 10.4144C16.8499 10.4995 16.6238 10.5218 16.4055 10.4784C16.1873 10.435 15.9868 10.3278 15.8295 10.1705C15.6722 10.0132 15.565 9.81271 15.5216 9.59448C15.4782 9.37625 15.5005 9.15005 15.5856 8.94449C15.6708 8.73892 15.815 8.56322 16 8.4396C16.185 8.31599 16.4025 8.25001 16.625 8.25001C16.9234 8.25001 17.2095 8.36853 17.4205 8.57951C17.6315 8.79049 17.75 9.07664 17.75 9.37501Z" fill="white"/>
</svg>
